Coordinates
version=1
nRows=6
nColumns=36
inDegrees=yes

Units are S.I. units (second, meters, Newtons, ...)
If the header above contains a line with 'inDegrees', this indicates whether rotational values are in degrees (yes) or radians (no).

endheader
time	pelvis_tilt	pelvis_list	pelvis_rotation	pelvis_tx	pelvis_ty	pelvis_tz	hip_flexion_r	hip_adduction_r	hip_rotation_r	knee_angle_r	knee_angle_r_beta	ankle_angle_r	subtalar_angle_r	mtp_angle_r	hip_flexion_l	hip_adduction_l	hip_rotation_l	knee_angle_l	knee_angle_l_beta	ankle_angle_l	subtalar_angle_l	mtp_angle_l	lumbar_extension	lumbar_bending	lumbar_rotation	arm_flex_r	arm_add_r	arm_rot_r	elbow_flex_r	pro_sup_r	arm_flex_l	arm_add_l	arm_rot_l	elbow_flex_l	pro_sup_l
     44.96666670	     12.76962298	     -2.11936742	      0.65992448	      0.77168681	      1.05284191	      0.73304790	     13.22045418	     -0.05602317	     -1.11350472	     34.27378146	      0.59819033	     -0.96845278	    -11.66394379	     -7.49999987	    -19.32674651	     -0.35424951	      5.31513953	      5.22454024	      0.09118543	     10.83449420	     -4.09726101	     -7.49999987	    -27.48911259	      1.30365375	      6.00076109	    -16.64147226	    -14.08564067	     -4.57258469	     38.05006728	     66.30189967	     19.68607181	    -14.33249061	     17.49877681	     33.05826829	     67.35111096
     44.98333330	     11.88505781	     -1.96131859	      0.57347008	      0.77042299	      1.04890847	      0.73203994	     14.01326055	     -0.34207093	     -1.28669309	     28.44397120	      0.49644095	     -1.45169135	    -10.77680951	     -7.49999987	    -19.66966096	     -0.31365748	      5.09839232	      4.99565370	      0.08719061	     11.54525412	     -3.78212922	     -7.49999987	    -26.60551419	      1.32762125	      5.50262544	    -17.33753202	    -13.89159001	     -4.48189093	     37.54436695	     65.75115215	     19.57523869	    -14.89058596	     17.04286845	     34.50465836	     66.17299424
     45.00000000	     10.94088773	     -1.77737475	      0.48637619	      0.76890985	      1.04676243	      0.73232813	     14.65759422	     -0.63065324	     -1.43845339	     22.46263802	      0.39204699	     -1.57014569	     -9.39571032	     -7.49999987	    -19.93329695	     -0.24696801	      4.77571198	      4.78149285	      0.08345279	     12.32672228	     -3.37479817	     -7.49999987	    -25.54558264	      1.31843264	      4.92381067	    -17.74249802	    -13.74935590	     -4.13080606	     36.65141045	     65.38227972	     19.32513498	    -15.35406101	     16.54801980	     35.55956477	     65.26642669
     45.01666670	      9.94336198	     -1.57711492	      0.40078258	      0.76753725	      1.04563679	      0.73408458	     15.17136214	     -0.93120704	     -1.64634949	     16.63330146	      0.29030588	     -1.17943966	     -7.48797921	     -7.49999987	    -20.10949420	     -0.15451097	      4.38211080	      4.58286261	      0.07998604	     13.22778071	     -2.85875885	     -7.49999987	    -24.32265998	      1.27142915	      4.34587374	    -17.93123080	    -13.67108192	     -3.56674970	     35.52929129	     64.85688668	     18.96961471	    -15.73953976	     16.08617771	     36.49127831	     64.29423107
     45.03333330	      8.99916240	     -1.37050574	      0.32987519	      0.76638468	      1.04281237	      0.73632207	     15.56617672	     -1.22549794	     -1.93291977	     11.43640640	      0.19960295	     -0.37485934	     -5.21977965	     -7.49999987	    -20.28318815	     -0.04472384	      3.90162168	      4.45780857	      0.07780344	     14.31616811	     -2.33041050	     -7.49999987	    -23.04248919	      1.16568956	      3.81178398	    -18.04284278	    -13.64405893	     -2.85659627	     34.55577265	     64.41503944	     18.64408201	    -16.09092736	     15.74400973	     37.35640971	     63.58969688
     45.05000000	      8.18388972	     -1.21921335	      0.26539504	      0.76508250	      1.03870732	      0.73831468	     15.95869837	     -1.43154847	     -2.30296995	      7.54994339	      0.13177137	      0.67869341	     -2.98192366	     -7.49999987	    -20.48032417	      0.02819496	      3.34291558	      4.51929868	      0.07887664	     15.51916599	     -1.95832132	     -7.49999987	    -21.82100803	      1.04945168	      3.57544015	    -17.96151685	    -13.70846527	     -1.96612834	     33.57716437	     64.16263909	     18.50522137	    -16.15671143	     15.62297784	     38.13608044	     63.26165427
